<?xml version="1.0" encoding="UTF-8"?><svg id="Layer_1" xmlns="http://www.w3.org/2000/svg" xmlns:xlink="http://www.w3.org/1999/xlink" viewBox="0 0 5669.3 2834.65"><defs><style>.cls-1{fill:url(#linear-gradient-2);}.cls-2{fill:url(#linear-gradient-17);}.cls-3{fill:url(#linear-gradient-15);}.cls-4{fill:url(#linear-gradient-18);}.cls-5{fill:url(#linear-gradient-40);}.cls-6{fill:url(#linear-gradient-28);}.cls-7{fill:url(#linear-gradient-14);}.cls-8{fill:url(#linear-gradient-36);}.cls-9{fill:url(#linear-gradient-20);}.cls-10{fill:url(#linear-gradient-6);}.cls-11{fill:url(#linear-gradient-35);}.cls-12{fill:url(#linear-gradient-32);}.cls-13{fill:url(#linear-gradient-11);}.cls-14{fill:url(#linear-gradient-39);}.cls-15{fill:url(#linear-gradient-10);}.cls-16{fill:url(#linear-gradient-37);}.cls-17{fill:url(#linear-gradient-16);}.cls-18{fill:url(#linear-gradient-31);}.cls-19{fill:url(#linear-gradient-41);}.cls-20{fill:url(#linear-gradient-21);}.cls-21{fill:url(#linear-gradient-25);}.cls-22{fill:#edbcbd;}.cls-23{fill:url(#linear-gradient-5);}.cls-24{fill:url(#linear-gradient-34);}.cls-25{fill:url(#linear-gradient-7);}.cls-26{fill:url(#linear-gradient-24);}.cls-27{fill:url(#linear-gradient-9);}.cls-28{fill:url(#linear-gradient-22);}.cls-29{fill:url(#linear-gradient-3);}.cls-30{fill:url(#linear-gradient);}.cls-31{fill:url(#linear-gradient-27);}.cls-32{fill:url(#linear-gradient-33);}.cls-33{fill:url(#linear-gradient-38);}.cls-34{fill:url(#linear-gradient-29);}.cls-35{fill:url(#linear-gradient-30);}.cls-36{fill:#efbec1;opacity:.3;}.cls-37{fill:url(#linear-gradient-23);}.cls-38{fill:url(#linear-gradient-19);}.cls-39{fill:url(#linear-gradient-4);}.cls-40{fill:url(#linear-gradient-8);}.cls-41{fill:url(#linear-gradient-12);}.cls-42{fill:url(#linear-gradient-13);}.cls-43{fill:url(#linear-gradient-26);}</style><linearGradient id="linear-gradient" x1="2554.24" y1="1148" x2="2554.24" y2="-20" gradientTransform="translate(5388.89) rotate(-180) scale(1 -1)" gradientUnits="userSpaceOnUse"><stop offset="0" stop-color="#fae9ea"/><stop offset="1" stop-color="#fdd2cc"/></linearGradient><linearGradient id="linear-gradient-2" x1="3115.32" y1="1465.57" x2="3115.32" y2="689.31" gradientTransform="translate(-280.67)" gradientUnits="userSpaceOnUse"><stop offset="0" stop-color="#587064"/><stop offset="1" stop-color="#f3a3ac"/></linearGradient><linearGradient id="linear-gradient-3" x1="805.5" y1="2033.61" x2="805.5" y2="815.45" gradientTransform="translate(-280.67)" gradientUnits="userSpaceOnUse"><stop offset="0" stop-color="#254458"/><stop offset="1" stop-color="#3b657a"/></linearGradient><linearGradient id="linear-gradient-4" x1="1869.25" y1="2033.6" x2="1869.25" y2="815.45" xlink:href="#linear-gradient-3"/><linearGradient id="linear-gradient-5" x1="3012.1" y1="2033.61" x2="3012.1" y2="815.44" xlink:href="#linear-gradient-3"/><linearGradient id="linear-gradient-6" x1="857.81" y1="2033.62" x2="857.81" y2="815.44" xlink:href="#linear-gradient-3"/><linearGradient id="linear-gradient-7" x1="1838.81" y1="2033.61" x2="1838.81" y2="815.45" xlink:href="#linear-gradient-3"/><linearGradient id="linear-gradient-8" x1="2153.26" y1="2033.61" x2="2153.26" y2="815.44" xlink:href="#linear-gradient-3"/><linearGradient id="linear-gradient-9" x1="2733.38" y1="2033.62" x2="2733.38" y2="815.44" xlink:href="#linear-gradient-3"/><linearGradient id="linear-gradient-10" x1="2186.74" y1="2033.62" x2="2186.74" y2="815.44" xlink:href="#linear-gradient-3"/><linearGradient id="linear-gradient-11" x1="3064.76" y1="2033.61" x2="3064.76" y2="815.45" xlink:href="#linear-gradient-3"/><linearGradient id="linear-gradient-12" x1="3096.38" y1="2033.61" x2="3096.38" y2="815.45" xlink:href="#linear-gradient-3"/><linearGradient id="linear-gradient-13" x1="3381.48" y1="2033.62" x2="3381.48" y2="815.44" xlink:href="#linear-gradient-3"/><linearGradient id="linear-gradient-14" x1="3413.45" y1="2033.61" x2="3413.45" y2="815.44" xlink:href="#linear-gradient-3"/><linearGradient id="linear-gradient-15" x1="4299.57" y1="2033.61" x2="4299.57" y2="815.45" xlink:href="#linear-gradient-3"/><linearGradient id="linear-gradient-16" x1="4383.46" y1="2033.61" x2="4383.46" y2="815.44" xlink:href="#linear-gradient-3"/><linearGradient id="linear-gradient-17" x1="4668.92" y1="2013.21" x2="4668.92" y2="795.04" xlink:href="#linear-gradient-3"/><linearGradient id="linear-gradient-18" x1="4958.64" y1="2033.61" x2="4958.64" y2="815.45" xlink:href="#linear-gradient-3"/><linearGradient id="linear-gradient-19" x1="5209.34" y1="2033.61" x2="5209.34" y2="815.45" xlink:href="#linear-gradient-3"/><linearGradient id="linear-gradient-20" x1="5306.48" y1="2033.61" x2="5306.48" y2="815.45" xlink:href="#linear-gradient-3"/><linearGradient id="linear-gradient-21" x1="2532.52" y1="2033.62" x2="2532.52" y2="815.44" xlink:href="#linear-gradient-3"/><linearGradient id="linear-gradient-22" x1="433.01" y1="2033.61" x2="433.01" y2="815.44" xlink:href="#linear-gradient-3"/><linearGradient id="linear-gradient-23" x1="2960.24" y1="2365.79" x2="2960.24" y2="693.93" xlink:href="#linear-gradient-3"/><linearGradient id="linear-gradient-24" x1="3892.43" y1="3036.71" x2="3892.43" y2="1120" gradientTransform="translate(-280.67)" gradientUnits="userSpaceOnUse"><stop offset="0" stop-color="#305973"/><stop offset="1" stop-color="#204253"/></linearGradient><linearGradient id="linear-gradient-25" x1="3667.23" y1="3036.7" x2="3667.23" y2="1120.01" xlink:href="#linear-gradient-24"/><linearGradient id="linear-gradient-26" x1="3809.09" y1="3036.7" x2="3809.09" y2="1120" xlink:href="#linear-gradient-24"/><linearGradient id="linear-gradient-27" x1="4031.76" y1="3036.71" x2="4031.76" y2="1120" xlink:href="#linear-gradient-24"/><linearGradient id="linear-gradient-28" x1="1888.46" y1="3036.69" x2="1888.46" y2="1120.01" xlink:href="#linear-gradient-24"/><linearGradient id="linear-gradient-29" x1="1974.02" y1="3036.69" x2="1974.02" y2="1120" xlink:href="#linear-gradient-24"/><linearGradient id="linear-gradient-30" x1="3385.24" y1="3734.31" x2="3385.24" y2="1127.42" xlink:href="#linear-gradient-24"/><linearGradient id="linear-gradient-31" x1="1095.79" y1="2383.23" x2="1095.79" y2="1010.32" gradientTransform="translate(-280.67)" gradientUnits="userSpaceOnUse"><stop offset="0" stop-color="#172d3c"/><stop offset="1" stop-color="#1b3649"/></linearGradient><linearGradient id="linear-gradient-32" x1="1401.13" y1="2383.23" x2="1401.13" y2="1010.33" xlink:href="#linear-gradient-31"/><linearGradient id="linear-gradient-33" x1="1258.77" y1="2383.23" x2="1258.77" y2="1010.33" xlink:href="#linear-gradient-31"/><linearGradient id="linear-gradient-34" x1="531.26" y1="2383.24" x2="531.26" y2="1010.32" xlink:href="#linear-gradient-31"/><linearGradient id="linear-gradient-35" x1="4371.7" y1="2232.27" x2="4371.7" y2="859.37" xlink:href="#linear-gradient-31"/><linearGradient id="linear-gradient-36" x1="4580.18" y1="2232.27" x2="4580.18" y2="859.37" xlink:href="#linear-gradient-31"/><linearGradient id="linear-gradient-37" x1="5580.26" y1="2383.23" x2="5580.26" y2="1010.33" xlink:href="#linear-gradient-31"/><linearGradient id="linear-gradient-38" x1="4765.36" y1="2269.8" x2="4765.36" y2="896.89" xlink:href="#linear-gradient-31"/><linearGradient id="linear-gradient-39" x1="3215.55" y1="2383.23" x2="3215.55" y2="1010.33" xlink:href="#linear-gradient-31"/><linearGradient id="linear-gradient-40" x1="3345.86" y1="2383.23" x2="3345.86" y2="1010.33" xlink:href="#linear-gradient-31"/><linearGradient id="linear-gradient-41" x1="3115.32" y1="2846.28" x2="3115.32" y2="848.71" xlink:href="#linear-gradient-31"/></defs><rect class="cls-30" x="0" width="5669.3" height="2834.65"/><polygon class="cls-36" points="0 219.86 684 656.44 1476 206.57 1987 468.54 2836.77 839.18 3564.01 533.43 3960.12 730.89 4661.69 312.98 5669.3 825 5669.3 1749.85 0 1749.85 0 219.86"/><polygon class="cls-22" points="0 546.74 701 267.38 1429.55 620.17 2291.86 904.57 3002.13 459.68 3718.59 905.12 5322.15 344.79 5669.3 574.26 5669.3 1689.05 0 1689.05 0 546.74"/><polygon class="cls-1" points="5669.3 1865.96 0 1865.96 0 435.68 560 745.28 828 600.95 1536 943.68 2072.67 687.94 2324 651.68 3206.16 869.57 4120.01 691.68 5216 978.21 5669.3 745.28 5669.3 1865.96"/><polygon class="cls-29" points="524.83 1036.27 559.03 1187.21 490.62 1187.21 524.83 1036.27"/><polygon class="cls-39" points="1588.57 1034.31 1619.01 1168.59 1558.14 1168.59 1588.57 1034.31"/><polygon class="cls-23" points="2731.43 1146.41 2760.93 1276.59 2701.93 1276.59 2731.43 1146.41"/><polygon class="cls-10" points="577.14 1036.27 610.63 1184.02 543.66 1184.02 577.14 1036.27"/><polygon class="cls-25" points="1558.14 1019.08 1590.49 1161.81 1525.79 1161.81 1558.14 1019.08"/><polygon class="cls-40" points="1872.59 1043.36 1899.32 1161.27 1845.87 1161.27 1872.59 1043.36"/><polygon class="cls-27" points="2452.71 1069.42 2485.48 1214.01 2419.95 1214.01 2452.71 1069.42"/><polygon class="cls-15" points="1906.07 998.69 1942.92 1161.27 1869.23 1161.27 1906.07 998.69"/><polygon class="cls-13" points="2784.09 1114.01 2820.93 1276.59 2747.24 1276.59 2784.09 1114.01"/><polygon class="cls-41" points="2815.71 1133.7 2852.11 1294.32 2779.31 1294.32 2815.71 1133.7"/><polygon class="cls-42" points="3100.81 1063.9 3139.1 1232.85 3062.52 1232.85 3100.81 1063.9"/><polygon class="cls-7" points="3132.78 1081.54 3174.73 1266.63 3090.83 1266.63 3132.78 1081.54"/><polygon class="cls-3" points="4018.9 1118.96 4060.85 1304.04 3976.96 1304.04 4018.9 1118.96"/><polygon class="cls-17" points="4102.8 1155.24 4144.74 1340.33 4060.85 1340.33 4102.8 1155.24"/><polygon class="cls-2" points="4388.24 1134.84 4430.19 1319.93 4346.3 1319.93 4388.24 1134.84"/><polygon class="cls-4" points="4677.97 1211.5 4719.91 1396.59 4636.02 1396.59 4677.97 1211.5"/><polygon class="cls-38" points="4928.66 1247.79 4970.61 1432.87 4886.72 1432.87 4928.66 1247.79"/><polygon class="cls-9" points="5025.81 1247.79 5067.76 1432.87 4983.86 1432.87 5025.81 1247.79"/><polygon class="cls-20" points="2251.85 1063.9 2280.86 1191.91 2222.84 1191.91 2251.85 1063.9"/><polygon class="cls-28" points="152.34 1082.76 179.07 1200.67 125.62 1200.67 152.34 1082.76"/><path class="cls-37" d="m2775.63,1261.51c-424.23-93.21-946.79-120.66-1423.65-119.77C622.52,1143.09,0,1210.76,0,1210.76v1623.89h3866.11s1342.83-1082.98,1492.8-1390.16c23.64-48.4-1743.85-317.26-2583.29-182.97Z"/><polygon class="cls-26" points="3611.76 1124.85 3690.48 1460.13 3533.03 1460.13 3611.76 1124.85"/><polygon class="cls-21" points="3386.56 1073.34 3480.41 1473.06 3292.71 1473.06 3386.56 1073.34"/><polygon class="cls-43" points="3528.42 1181.8 3590.09 1444.49 3466.74 1444.49 3528.42 1181.8"/><polygon class="cls-31" points="3751.08 1235.4 3797.23 1431.95 3704.94 1431.95 3751.08 1235.4"/><polygon class="cls-6" points="1607.79 1202.9 1653.93 1399.46 1561.64 1399.46 1607.79 1202.9"/><polygon class="cls-34" points="1693.35 1113.48 1758.86 1392.48 1627.84 1392.48 1693.35 1113.48"/><path class="cls-35" d="m5669.3,1099.43s-355.26,277.04-838,356.38c-266.15,43.74-753.62-29.01-1277.15-52.86-235.4-10.73-473.05,151.57-707.53,148.72-417.07-5.06-812.72-169.54-1086.62-172.38-1070.9-11.12-1220.17,1455.35-1220.17,1455.35h5129.47v-1735.22Z"/><polygon class="cls-18" points="815.11 986.69 687.19 1551.17 943.04 1551.17 815.11 986.69"/><polygon class="cls-12" points="1120.46 896.36 967.95 1569.34 1272.97 1569.34 1120.46 896.36"/><polygon class="cls-32" points="978.1 1108.92 877.87 1551.17 1078.32 1551.17 978.1 1108.92"/><polygon class="cls-24" points="250.59 1120.77 172.74 1464.28 328.44 1464.28 250.59 1120.77"/><polygon class="cls-11" points="4091.03 1360.47 3988.64 1812.27 4193.42 1812.27 4091.03 1360.47"/><polygon class="cls-8" points="4299.51 1138.71 4162.55 1743.01 4436.46 1743.01 4299.51 1138.71"/><polygon class="cls-16" points="5299.58 1018.96 5147.07 1691.95 5452.1 1691.95 5299.58 1018.96"/><polygon class="cls-33" points="4484.68 1089.14 4351.34 1677.54 4618.03 1677.54 4484.68 1089.14"/><polygon class="cls-14" points="2934.87 1162.21 2834.65 1604.47 3035.1 1604.47 2934.87 1162.21"/><polygon class="cls-5" points="3065.19 1357.39 3003.89 1627.89 3126.49 1627.89 3065.19 1357.39"/><path class="cls-19" d="m5669.3,2834.65v-1155.48s-62.5,12.06-136.32-2.29c-1048.31-203.81-1315.17,47.55-1842.51,151.13-342.2-298.51-1303.71-360.27-2637.84-297.71C618.44,1550.66,0,1365.51,0,1365.51v1469.14h5669.3Z"/></svg>